<?xml version="1.0" encoding="UTF-8" standalone="no"?>
<!DOCTYPE svg PUBLIC "-//W3C//DTD SVG 1.1//EN"
 "http://www.w3.org/Graphics/SVG/1.1/DTD/svg11.dtd">
<!-- Generated by graphviz version 14.1.5 (20260411.2331)
 -->
<!-- Title: Random Forest Dashboard Process Pages: 1 -->
<svg width="1057pt" height="944pt"
 viewBox="7.00 7.00 1050.00 937.00" xmlns="http://www.w3.org/2000/svg" xmlns:xlink="http://www.w3.org/1999/xlink">
<g id="graph0" class="graph" transform="scale(1 1) rotate(0) translate(43.2 900.5)">
<title>Random Forest Dashboard Process</title>
<polygon fill="#070b16" stroke="none" points="-36,36 -36,-893.3 1006.92,-893.3 1006.92,36 -36,36"/>
<text xml:space="preserve" text-anchor="start" x="213.59" y="-817.8" font-family="Arial" font-weight="bold" font-size="30.00" fill="#f5f7fb">Random Forest Classification Process</text>
<text xml:space="preserve" text-anchor="start" x="276.96" y="-786.55" font-family="Arial" font-size="15.00" fill="#f5f7fb">100 decision trees classify image quality metrics independently</text>
<text xml:space="preserve" text-anchor="start" x="379.34" y="-762.3" font-family="Arial" font-size="11.00" fill="#f5f7fb">Average depth: 20.8 · Average nodes: 518.7</text>
<!-- input -->
<g id="node1" class="node">
<title>input</title>
<path fill="#332b14" stroke="#ffd166" stroke-width="2.5" d="M569.8,-747.3C569.8,-747.3 393.25,-747.3 393.25,-747.3 387.25,-747.3 381.25,-741.3 381.25,-735.3 381.25,-735.3 381.25,-657.89 381.25,-657.89 381.25,-651.89 387.25,-645.89 393.25,-645.89 393.25,-645.89 569.8,-645.89 569.8,-645.89 575.8,-645.89 581.8,-651.89 581.8,-657.89 581.8,-657.89 581.8,-735.3 581.8,-735.3 581.8,-741.3 575.8,-747.3 569.8,-747.3"/>
<text xml:space="preserve" text-anchor="start" x="463.15" y="-719.97" font-family="Arial" font-size="12.00" fill="#f5f7fb">INPUT</text>
<text xml:space="preserve" text-anchor="start" x="401.65" y="-689.07" font-family="Arial" font-weight="bold" font-size="22.00" fill="#f5f7fb">Image Features</text>
<text xml:space="preserve" text-anchor="start" x="402.77" y="-664.97" font-family="Arial" font-size="11.00" fill="#f5f7fb">blur_score · brightness · contrast</text>
</g>
<!-- tree_0 -->
<g id="node2" class="node">
<title>tree_0</title>
<path fill="#14213d" stroke="#4ea8ff" stroke-width="2.2" d="M143.05,-584.89C143.05,-584.89 12,-584.89 12,-584.89 6,-584.89 0,-578.89 0,-572.89 0,-572.89 0,-487.23 0,-487.23 0,-481.23 6,-475.23 12,-475.23 12,-475.23 143.05,-475.23 143.05,-475.23 149.05,-475.23 155.05,-481.23 155.05,-487.23 155.05,-487.23 155.05,-572.89 155.05,-572.89 155.05,-578.89 149.05,-584.89 143.05,-584.89"/>
<text xml:space="preserve" text-anchor="start" x="55.02" y="-559.31" font-family="Arial" font-size="11.00" fill="#f5f7fb">TREE #0</text>
<text xml:space="preserve" text-anchor="start" x="19.4" y="-533.21" font-family="Arial" font-weight="bold" font-size="18.00" fill="#f5f7fb">Decision Tree</text>
<text xml:space="preserve" text-anchor="start" x="57.27" y="-511.56" font-family="Arial" font-size="10.00" fill="#f5f7fb">depth: 19</text>
<text xml:space="preserve" text-anchor="start" x="53.52" y="-492.56" font-family="Arial" font-size="10.00" fill="#f5f7fb">nodes: 471</text>
</g>
<!-- input&#45;&gt;tree_0 -->
<g id="edge1" class="edge">
<title>input&#45;&gt;tree_0</title>
<path fill="none" stroke="#4ea8ff" stroke-width="1.6" d="M380.1,-697C260.43,-697 77.52,-697 77.52,-697 77.52,-697 77.52,-595.57 77.52,-595.57"/>
<polygon fill="#4ea8ff" stroke="#4ea8ff" stroke-width="1.6" points="80.15,-595.57 77.53,-588.07 74.9,-595.57 80.15,-595.57"/>
</g>
<!-- tree_1 -->
<g id="node3" class="node">
<title>tree_1</title>
<path fill="#14213d" stroke="#4ea8ff" stroke-width="2.2" d="M345.05,-584.89C345.05,-584.89 214,-584.89 214,-584.89 208,-584.89 202,-578.89 202,-572.89 202,-572.89 202,-487.23 202,-487.23 202,-481.23 208,-475.23 214,-475.23 214,-475.23 345.05,-475.23 345.05,-475.23 351.05,-475.23 357.05,-481.23 357.05,-487.23 357.05,-487.23 357.05,-572.89 357.05,-572.89 357.05,-578.89 351.05,-584.89 345.05,-584.89"/>
<text xml:space="preserve" text-anchor="start" x="257.02" y="-559.31" font-family="Arial" font-size="11.00" fill="#f5f7fb">TREE #1</text>
<text xml:space="preserve" text-anchor="start" x="221.4" y="-533.21" font-family="Arial" font-weight="bold" font-size="18.00" fill="#f5f7fb">Decision Tree</text>
<text xml:space="preserve" text-anchor="start" x="259.27" y="-511.56" font-family="Arial" font-size="10.00" fill="#f5f7fb">depth: 19</text>
<text xml:space="preserve" text-anchor="start" x="255.52" y="-492.56" font-family="Arial" font-size="10.00" fill="#f5f7fb">nodes: 525</text>
</g>
<!-- input&#45;&gt;tree_1 -->
<g id="edge2" class="edge">
<title>input&#45;&gt;tree_1</title>
<path fill="none" stroke="#4ea8ff" stroke-width="1.6" d="M392.62,-644.8C392.62,-595.89 392.62,-530 392.62,-530 392.62,-530 368,-530 368,-530"/>
<polygon fill="#4ea8ff" stroke="#4ea8ff" stroke-width="1.6" points="368,-527.38 360.5,-530 368,-532.63 368,-527.38"/>
</g>
<!-- tree_2 -->
<g id="node4" class="node">
<title>tree_2</title>
<path fill="#14213d" stroke="#4ea8ff" stroke-width="2.2" d="M547.05,-584.89C547.05,-584.89 416,-584.89 416,-584.89 410,-584.89 404,-578.89 404,-572.89 404,-572.89 404,-487.23 404,-487.23 404,-481.23 410,-475.23 416,-475.23 416,-475.23 547.05,-475.23 547.05,-475.23 553.05,-475.23 559.05,-481.23 559.05,-487.23 559.05,-487.23 559.05,-572.89 559.05,-572.89 559.05,-578.89 553.05,-584.89 547.05,-584.89"/>
<text xml:space="preserve" text-anchor="start" x="459.02" y="-559.31" font-family="Arial" font-size="11.00" fill="#f5f7fb">TREE #2</text>
<text xml:space="preserve" text-anchor="start" x="423.4" y="-533.21" font-family="Arial" font-weight="bold" font-size="18.00" fill="#f5f7fb">Decision Tree</text>
<text xml:space="preserve" text-anchor="start" x="461.27" y="-511.56" font-family="Arial" font-size="10.00" fill="#f5f7fb">depth: 22</text>
<text xml:space="preserve" text-anchor="start" x="457.52" y="-492.56" font-family="Arial" font-size="10.00" fill="#f5f7fb">nodes: 525</text>
</g>
<!-- input&#45;&gt;tree_2 -->
<g id="edge3" class="edge">
<title>input&#45;&gt;tree_2</title>
<path fill="none" stroke="#4ea8ff" stroke-width="1.6" d="M481.52,-644.82C481.52,-644.82 481.52,-595.78 481.52,-595.78"/>
<polygon fill="#4ea8ff" stroke="#4ea8ff" stroke-width="1.6" points="484.15,-595.78 481.53,-588.28 478.9,-595.78 484.15,-595.78"/>
</g>
<!-- tree_3 -->
<g id="node5" class="node">
<title>tree_3</title>
<path fill="#14213d" stroke="#4ea8ff" stroke-width="2.2" d="M749.05,-584.89C749.05,-584.89 618,-584.89 618,-584.89 612,-584.89 606,-578.89 606,-572.89 606,-572.89 606,-487.23 606,-487.23 606,-481.23 612,-475.23 618,-475.23 618,-475.23 749.05,-475.23 749.05,-475.23 755.05,-475.23 761.05,-481.23 761.05,-487.23 761.05,-487.23 761.05,-572.89 761.05,-572.89 761.05,-578.89 755.05,-584.89 749.05,-584.89"/>
<text xml:space="preserve" text-anchor="start" x="661.02" y="-559.31" font-family="Arial" font-size="11.00" fill="#f5f7fb">TREE #3</text>
<text xml:space="preserve" text-anchor="start" x="625.4" y="-533.21" font-family="Arial" font-weight="bold" font-size="18.00" fill="#f5f7fb">Decision Tree</text>
<text xml:space="preserve" text-anchor="start" x="663.27" y="-511.56" font-family="Arial" font-size="10.00" fill="#f5f7fb">depth: 22</text>
<text xml:space="preserve" text-anchor="start" x="659.52" y="-492.56" font-family="Arial" font-size="10.00" fill="#f5f7fb">nodes: 531</text>
</g>
<!-- input&#45;&gt;tree_3 -->
<g id="edge4" class="edge">
<title>input&#45;&gt;tree_3</title>
<path fill="none" stroke="#4ea8ff" stroke-width="1.6" d="M570.42,-644.8C570.42,-595.89 570.42,-530 570.42,-530 570.42,-530 595.05,-530 595.05,-530"/>
<polygon fill="#4ea8ff" stroke="#4ea8ff" stroke-width="1.6" points="595.05,-532.63 602.55,-530 595.05,-527.38 595.05,-532.63"/>
</g>
<!-- other_trees -->
<g id="node6" class="node">
<title>other_trees</title>
<path fill="#14213d" stroke="#4ea8ff" stroke-width="2" stroke-dasharray="5,2" d="M937.92,-578.76C937.92,-578.76 827.12,-578.76 827.12,-578.76 821.12,-578.76 815.12,-572.76 815.12,-566.76 815.12,-566.76 815.12,-493.35 815.12,-493.35 815.12,-487.35 821.12,-481.35 827.12,-481.35 827.12,-481.35 937.92,-481.35 937.92,-481.35 943.92,-481.35 949.92,-487.35 949.92,-493.35 949.92,-493.35 949.92,-566.76 949.92,-566.76 949.92,-572.76 943.92,-578.76 937.92,-578.76"/>
<text xml:space="preserve" text-anchor="start" x="873.52" y="-543.78" font-family="Arial" font-weight="bold" font-size="22.00" fill="#f5f7fb">...</text>
<text xml:space="preserve" text-anchor="start" x="838.27" y="-518.88" font-family="Arial" font-weight="bold" font-size="14.00" fill="#f5f7fb">96 other trees</text>
<text xml:space="preserve" text-anchor="start" x="834.52" y="-498.68" font-family="Arial" font-size="10.00" fill="#f5f7fb">not shown individually</text>
</g>
<!-- input&#45;&gt;other_trees -->
<g id="edge5" class="edge">
<title>input&#45;&gt;other_trees</title>
<path fill="none" stroke="#4ea8ff" stroke-width="1.6" d="M582.97,-697C701.77,-697 882.52,-697 882.52,-697 882.52,-697 882.52,-589.62 882.52,-589.62"/>
<polygon fill="#4ea8ff" stroke="#4ea8ff" stroke-width="1.6" points="885.15,-589.62 882.53,-582.12 879.9,-589.62 885.15,-589.62"/>
</g>
<!-- pred_0 -->
<g id="node7" class="node">
<title>pred_0</title>
<path fill="#11354f" stroke="#5eebff" stroke-width="1.8" d="M142.8,-414.23C142.8,-414.23 12.25,-414.23 12.25,-414.23 6.25,-414.23 0.25,-408.23 0.25,-402.23 0.25,-402.23 0.25,-362.07 0.25,-362.07 0.25,-356.07 6.25,-350.07 12.25,-350.07 12.25,-350.07 142.8,-350.07 142.8,-350.07 148.8,-350.07 154.8,-356.07 154.8,-362.07 154.8,-362.07 154.8,-402.23 154.8,-402.23 154.8,-408.23 148.8,-414.23 142.8,-414.23"/>
<text xml:space="preserve" text-anchor="start" x="57.27" y="-390.4" font-family="Arial" font-size="10.00" fill="#f5f7fb">TREE #0</text>
<text xml:space="preserve" text-anchor="start" x="18.65" y="-368.9" font-family="Arial" font-weight="bold" font-size="15.00" fill="#f5f7fb">Class Prediction</text>
</g>
<!-- tree_0&#45;&gt;pred_0 -->
<g id="edge6" class="edge">
<title>tree_0&#45;&gt;pred_0</title>
<path fill="none" stroke="#5eebff" stroke-width="1.5" d="M77.52,-474.14C77.52,-474.14 77.52,-424.74 77.52,-424.74"/>
<polygon fill="#5eebff" stroke="#5eebff" stroke-width="1.5" points="80.15,-424.74 77.53,-417.24 74.9,-424.74 80.15,-424.74"/>
</g>
<!-- pred_1 -->
<g id="node8" class="node">
<title>pred_1</title>
<path fill="#11354f" stroke="#5eebff" stroke-width="1.8" d="M344.8,-414.23C344.8,-414.23 214.25,-414.23 214.25,-414.23 208.25,-414.23 202.25,-408.23 202.25,-402.23 202.25,-402.23 202.25,-362.07 202.25,-362.07 202.25,-356.07 208.25,-350.07 214.25,-350.07 214.25,-350.07 344.8,-350.07 344.8,-350.07 350.8,-350.07 356.8,-356.07 356.8,-362.07 356.8,-362.07 356.8,-402.23 356.8,-402.23 356.8,-408.23 350.8,-414.23 344.8,-414.23"/>
<text xml:space="preserve" text-anchor="start" x="259.27" y="-390.4" font-family="Arial" font-size="10.00" fill="#f5f7fb">TREE #1</text>
<text xml:space="preserve" text-anchor="start" x="220.65" y="-368.9" font-family="Arial" font-weight="bold" font-size="15.00" fill="#f5f7fb">Class Prediction</text>
</g>
<!-- tree_1&#45;&gt;pred_1 -->
<g id="edge7" class="edge">
<title>tree_1&#45;&gt;pred_1</title>
<path fill="none" stroke="#5eebff" stroke-width="1.5" d="M279.52,-474.14C279.52,-474.14 279.52,-424.74 279.52,-424.74"/>
<polygon fill="#5eebff" stroke="#5eebff" stroke-width="1.5" points="282.15,-424.74 279.53,-417.24 276.9,-424.74 282.15,-424.74"/>
</g>
<!-- pred_2 -->
<g id="node9" class="node">
<title>pred_2</title>
<path fill="#11354f" stroke="#5eebff" stroke-width="1.8" d="M546.8,-414.23C546.8,-414.23 416.25,-414.23 416.25,-414.23 410.25,-414.23 404.25,-408.23 404.25,-402.23 404.25,-402.23 404.25,-362.07 404.25,-362.07 404.25,-356.07 410.25,-350.07 416.25,-350.07 416.25,-350.07 546.8,-350.07 546.8,-350.07 552.8,-350.07 558.8,-356.07 558.8,-362.07 558.8,-362.07 558.8,-402.23 558.8,-402.23 558.8,-408.23 552.8,-414.23 546.8,-414.23"/>
<text xml:space="preserve" text-anchor="start" x="461.27" y="-390.4" font-family="Arial" font-size="10.00" fill="#f5f7fb">TREE #2</text>
<text xml:space="preserve" text-anchor="start" x="422.65" y="-368.9" font-family="Arial" font-weight="bold" font-size="15.00" fill="#f5f7fb">Class Prediction</text>
</g>
<!-- tree_2&#45;&gt;pred_2 -->
<g id="edge8" class="edge">
<title>tree_2&#45;&gt;pred_2</title>
<path fill="none" stroke="#5eebff" stroke-width="1.5" d="M481.52,-474.14C481.52,-474.14 481.52,-424.74 481.52,-424.74"/>
<polygon fill="#5eebff" stroke="#5eebff" stroke-width="1.5" points="484.15,-424.74 481.53,-417.24 478.9,-424.74 484.15,-424.74"/>
</g>
<!-- pred_3 -->
<g id="node10" class="node">
<title>pred_3</title>
<path fill="#11354f" stroke="#5eebff" stroke-width="1.8" d="M748.8,-414.23C748.8,-414.23 618.25,-414.23 618.25,-414.23 612.25,-414.23 606.25,-408.23 606.25,-402.23 606.25,-402.23 606.25,-362.07 606.25,-362.07 606.25,-356.07 612.25,-350.07 618.25,-350.07 618.25,-350.07 748.8,-350.07 748.8,-350.07 754.8,-350.07 760.8,-356.07 760.8,-362.07 760.8,-362.07 760.8,-402.23 760.8,-402.23 760.8,-408.23 754.8,-414.23 748.8,-414.23"/>
<text xml:space="preserve" text-anchor="start" x="663.27" y="-390.4" font-family="Arial" font-size="10.00" fill="#f5f7fb">TREE #3</text>
<text xml:space="preserve" text-anchor="start" x="624.65" y="-368.9" font-family="Arial" font-weight="bold" font-size="15.00" fill="#f5f7fb">Class Prediction</text>
</g>
<!-- tree_3&#45;&gt;pred_3 -->
<g id="edge9" class="edge">
<title>tree_3&#45;&gt;pred_3</title>
<path fill="none" stroke="#5eebff" stroke-width="1.5" d="M683.52,-474.14C683.52,-474.14 683.52,-424.74 683.52,-424.74"/>
<polygon fill="#5eebff" stroke="#5eebff" stroke-width="1.5" points="686.15,-424.74 683.53,-417.24 680.9,-424.74 686.15,-424.74"/>
</g>
<!-- pred_other -->
<g id="node11" class="node">
<title>pred_other</title>
<path fill="#11354f" stroke="#5eebff" stroke-width="1.8" stroke-dasharray="5,2" d="M958.92,-414.23C958.92,-414.23 820.12,-414.23 820.12,-414.23 814.12,-414.23 808.12,-408.23 808.12,-402.23 808.12,-402.23 808.12,-362.07 808.12,-362.07 808.12,-356.07 814.12,-350.07 820.12,-350.07 820.12,-350.07 958.92,-350.07 958.92,-350.07 964.92,-350.07 970.92,-356.07 970.92,-362.07 970.92,-362.07 970.92,-402.23 970.92,-402.23 970.92,-408.23 964.92,-414.23 958.92,-414.23"/>
<text xml:space="preserve" text-anchor="start" x="853.9" y="-390.4" font-family="Arial" font-size="10.00" fill="#f5f7fb">OTHER TREES</text>
<text xml:space="preserve" text-anchor="start" x="826.52" y="-368.9" font-family="Arial" font-weight="bold" font-size="15.00" fill="#f5f7fb">Class Predictions</text>
</g>
<!-- other_trees&#45;&gt;pred_other -->
<g id="edge10" class="edge">
<title>other_trees&#45;&gt;pred_other</title>
<path fill="none" stroke="#5eebff" stroke-width="1.5" d="M882.52,-480.4C882.52,-480.4 882.52,-424.48 882.52,-424.48"/>
<polygon fill="#5eebff" stroke="#5eebff" stroke-width="1.5" points="885.15,-424.48 882.53,-416.98 879.9,-424.48 885.15,-424.48"/>
</g>
<!-- vote -->
<g id="node12" class="node">
<title>vote</title>
<path fill="#2c2452" stroke="#a78bff" stroke-width="2.4" d="M587.42,-289.07C587.42,-289.07 375.62,-289.07 375.62,-289.07 369.62,-289.07 363.62,-283.07 363.62,-277.07 363.62,-277.07 363.62,-198.16 363.62,-198.16 363.62,-192.16 369.62,-186.16 375.62,-186.16 375.62,-186.16 587.42,-186.16 587.42,-186.16 593.42,-186.16 599.42,-192.16 599.42,-198.16 599.42,-198.16 599.42,-277.07 599.42,-277.07 599.42,-283.07 593.42,-289.07 587.42,-289.07"/>
<text xml:space="preserve" text-anchor="start" x="402.77" y="-261.74" font-family="Arial" font-size="12.00" fill="#f5f7fb">ENSEMBLE AGGREGATION</text>
<text xml:space="preserve" text-anchor="start" x="394.52" y="-228.94" font-family="Arial" font-weight="bold" font-size="24.00" fill="#f5f7fb">Majority Voting</text>
<text xml:space="preserve" text-anchor="start" x="384.02" y="-205.24" font-family="Arial" font-size="11.00" fill="#f5f7fb">most frequent class becomes final output</text>
</g>
<!-- pred_0&#45;&gt;vote -->
<g id="edge11" class="edge">
<title>pred_0&#45;&gt;vote</title>
<path fill="none" stroke="#a78bff" stroke-width="1.6" d="M77.52,-349.44C77.52,-306.91 77.52,-238 77.52,-238 77.52,-238 352.58,-238 352.58,-238"/>
<polygon fill="#a78bff" stroke="#a78bff" stroke-width="1.6" points="352.58,-240.63 360.08,-238 352.58,-235.38 352.58,-240.63"/>
</g>
<!-- pred_1&#45;&gt;vote -->
<g id="edge12" class="edge">
<title>pred_1&#45;&gt;vote</title>
<path fill="none" stroke="#a78bff" stroke-width="1.6" d="M357.51,-382C366.45,-382 372.44,-382 372.44,-382 372.44,-382 372.44,-300.07 372.44,-300.07"/>
<polygon fill="#a78bff" stroke="#a78bff" stroke-width="1.6" points="375.06,-300.07 372.44,-292.57 369.81,-300.07 375.06,-300.07"/>
</g>
<!-- pred_2&#45;&gt;vote -->
<g id="edge13" class="edge">
<title>pred_2&#45;&gt;vote</title>
<path fill="none" stroke="#a78bff" stroke-width="1.6" d="M481.52,-349.35C481.52,-349.35 481.52,-300.05 481.52,-300.05"/>
<polygon fill="#a78bff" stroke="#a78bff" stroke-width="1.6" points="484.15,-300.05 481.53,-292.55 478.9,-300.05 484.15,-300.05"/>
</g>
<!-- pred_3&#45;&gt;vote -->
<g id="edge14" class="edge">
<title>pred_3&#45;&gt;vote</title>
<path fill="none" stroke="#a78bff" stroke-width="1.6" d="M605.7,-382C595.05,-382 587.67,-382 587.67,-382 587.67,-382 587.67,-300.07 587.67,-300.07"/>
<polygon fill="#a78bff" stroke="#a78bff" stroke-width="1.6" points="590.3,-300.07 587.68,-292.57 585.05,-300.07 590.3,-300.07"/>
</g>
<!-- pred_other&#45;&gt;vote -->
<g id="edge15" class="edge">
<title>pred_other&#45;&gt;vote</title>
<path fill="none" stroke="#a78bff" stroke-width="1.6" d="M865.21,-349.26C865.21,-334.35 865.21,-320 865.21,-320 865.21,-320 593.55,-320 593.55,-320 593.55,-320 593.55,-300.18 593.55,-300.18"/>
<polygon fill="#a78bff" stroke="#a78bff" stroke-width="1.6" points="596.18,-300.18 593.55,-292.68 590.93,-300.18 596.18,-300.18"/>
</g>
<!-- final_decision -->
<g id="node13" class="node">
<title>final_decision</title>
<path fill="#0f3d2e" stroke="#4dffb8" stroke-width="2.8" d="M598.3,-114.78C598.3,-114.78 364.75,-114.78 364.75,-114.78 358.75,-114.78 352.75,-108.78 352.75,-102.78 352.75,-102.78 352.75,-22.38 352.75,-22.38 352.75,-16.38 358.75,-10.37 364.75,-10.37 364.75,-10.37 598.3,-10.37 598.3,-10.37 604.3,-10.37 610.3,-16.37 610.3,-22.37 610.3,-22.37 610.3,-102.78 610.3,-102.78 610.3,-108.78 604.3,-114.78 598.3,-114.78"/>
<text xml:space="preserve" text-anchor="start" x="456.4" y="-87.45" font-family="Arial" font-size="12.00" fill="#f5f7fb">OUTPUT</text>
<text xml:space="preserve" text-anchor="start" x="373.15" y="-52.75" font-family="Arial" font-weight="bold" font-size="26.00" fill="#f5f7fb">Degradation Type</text>
<text xml:space="preserve" text-anchor="start" x="377.65" y="-28.7" font-family="Arial" font-size="10.00" fill="#f5f7fb">original · noise · lowcontrast · dark · blur · bright</text>
</g>
<!-- vote&#45;&gt;final_decision -->
<g id="edge16" class="edge">
<title>vote&#45;&gt;final_decision</title>
<path fill="none" stroke="#4dffb8" stroke-width="2.8" d="M481.52,-185.1C481.52,-185.1 481.52,-129.21 481.52,-129.21"/>
<polygon fill="#4dffb8" stroke="#4dffb8" stroke-width="2.8" points="484.68,-129.21 481.53,-120.21 478.38,-129.21 484.68,-129.21"/>
</g>
<!-- vote_example -->
<g id="node14" class="node">
<title>vote_example</title>
<path fill="#352e5f" stroke="#9b8cdb" stroke-width="1.6" d="M910.3,-284.32C910.3,-284.32 658.75,-284.32 658.75,-284.32 652.75,-284.32 646.75,-278.32 646.75,-272.32 646.75,-272.32 646.75,-202.91 646.75,-202.91 646.75,-196.91 652.75,-190.91 658.75,-190.91 658.75,-190.91 910.3,-190.91 910.3,-190.91 916.3,-190.91 922.3,-196.91 922.3,-202.91 922.3,-202.91 922.3,-272.32 922.3,-272.32 922.3,-278.32 916.3,-284.32 910.3,-284.32"/>
<text xml:space="preserve" text-anchor="start" x="713.27" y="-256.84" font-family="Arial" font-weight="bold" font-size="12.00" fill="#f5f7fb">Example Vote (100 Trees)</text>
<text xml:space="preserve" text-anchor="start" x="668.15" y="-233.49" font-family="Arial" font-size="11.00" fill="#f5f7fb">original</text>
<text xml:space="preserve" text-anchor="start" x="711.65" y="-234.54" font-family="Arial" font-weight="bold" font-size="11.00" fill="#f5f7fb">6</text>
<text xml:space="preserve" text-anchor="start" x="743.65" y="-233.49" font-family="Arial" font-size="11.00" fill="#f5f7fb">noise</text>
<text xml:space="preserve" text-anchor="start" x="778.15" y="-234.54" font-family="Arial" font-weight="bold" font-size="11.00" fill="#f5f7fb">9</text>
<text xml:space="preserve" text-anchor="start" x="810.15" y="-233.49" font-family="Arial" font-size="11.00" fill="#f5f7fb">lowcontrast</text>
<text xml:space="preserve" text-anchor="start" x="873.9" y="-234.54" font-family="Arial" font-weight="bold" font-size="11.00" fill="#f5f7fb">71</text>
<text xml:space="preserve" text-anchor="start" x="681.65" y="-210.99" font-family="Arial" font-size="11.00" fill="#f5f7fb">dark</text>
<text xml:space="preserve" text-anchor="start" x="711.65" y="-212.04" font-family="Arial" font-weight="bold" font-size="11.00" fill="#f5f7fb">0</text>
<text xml:space="preserve" text-anchor="start" x="751.15" y="-210.99" font-family="Arial" font-size="11.00" fill="#f5f7fb">blur</text>
<text xml:space="preserve" text-anchor="start" x="778.15" y="-212.04" font-family="Arial" font-weight="bold" font-size="11.00" fill="#f5f7fb">4</text>
<text xml:space="preserve" text-anchor="start" x="837.9" y="-210.99" font-family="Arial" font-size="11.00" fill="#f5f7fb">bright</text>
<text xml:space="preserve" text-anchor="start" x="873.9" y="-212.04" font-family="Arial" font-weight="bold" font-size="11.00" fill="#f5f7fb">10</text>
</g>
<!-- vote&#45;&gt;vote_example -->
<g id="edge17" class="edge">
<title>vote&#45;&gt;vote_example</title>
<path fill="none" stroke="#9b8cdb" stroke-width="1.4" stroke-dasharray="5,2" d="M600.41,-238C615.41,-238 630.87,-238 646.14,-238"/>
</g>
<!-- example_class -->
<g id="node15" class="node">
<title>example_class</title>
<path fill="#18382d" stroke="#6bcf9e" stroke-width="1.8" d="M863.05,-125.16C863.05,-125.16 706,-125.16 706,-125.16 700,-125.16 694,-119.16 694,-113.16 694,-113.16 694,-12 694,-12 694,-6 700,0 706,0 706,0 863.05,0 863.05,0 869.05,0 875.05,-6 875.05,-12 875.05,-12 875.05,-113.16 875.05,-113.16 875.05,-119.16 869.05,-125.16 863.05,-125.16"/>
<text xml:space="preserve" text-anchor="start" x="729.02" y="-97.83" font-family="Arial" font-size="12.00" fill="#f5f7fb">EXAMPLE OUTPUT</text>
<text xml:space="preserve" text-anchor="start" x="714.4" y="-64.08" font-family="Arial" font-weight="bold" font-size="25.00" fill="#f5f7fb">lowcontrast</text>
<text xml:space="preserve" text-anchor="start" x="715.52" y="-40.13" font-family="Arial" font-size="11.00" fill="#f5f7fb">prediction confidence: </text>
<text xml:space="preserve" text-anchor="start" x="822.77" y="-40.13" font-family="Arial" font-weight="bold" font-size="11.00" fill="#f5f7fb">71.0%</text>
<text xml:space="preserve" text-anchor="start" x="730.15" y="-18.33" font-family="Arial" font-size="10.00" fill="#f5f7fb">based on example voting</text>
</g>
<!-- vote_example&#45;&gt;example_class -->
<g id="edge18" class="edge">
<title>vote_example&#45;&gt;example_class</title>
<path fill="none" stroke="#6bcf9e" stroke-width="1.8" d="M784.52,-190.25C784.52,-190.25 784.52,-135.99 784.52,-135.99"/>
<polygon fill="#6bcf9e" stroke="#6bcf9e" stroke-width="1.8" points="787.15,-135.99 784.53,-128.49 781.9,-135.99 787.15,-135.99"/>
</g>
</g>
</svg>
